<?xml version="1.0" encoding="UTF-8" standalone="no"?>
<!-- Created with Inkscape (http://www.inkscape.org/) -->

<svg
   width="110.58726mm"
   height="91.540405mm"
   viewBox="0 0 110.58726 91.540405"
   version="1.1"
   id="svg1"
   inkscape:version="1.3.2 (091e20e, 2023-11-25, custom)"
   sodipodi:docname="cia_logo.svg"
   xmlns:inkscape="http://www.inkscape.org/namespaces/inkscape"
   xmlns:sodipodi="http://sodipodi.sourceforge.net/DTD/sodipodi-0.dtd"
   xmlns="http://www.w3.org/2000/svg"
   xmlns:svg="http://www.w3.org/2000/svg">
  <sodipodi:namedview
     id="namedview1"
     pagecolor="#505050"
     bordercolor="#eeeeee"
     borderopacity="1"
     inkscape:showpageshadow="0"
     inkscape:pageopacity="0"
     inkscape:pagecheckerboard="0"
     inkscape:deskcolor="#505050"
     inkscape:document-units="mm"
     inkscape:zoom="1.0209175"
     inkscape:cx="237.04168"
     inkscape:cy="99.910129"
     inkscape:window-width="2560"
     inkscape:window-height="1369"
     inkscape:window-x="-8"
     inkscape:window-y="-8"
     inkscape:window-maximized="1"
     inkscape:current-layer="layer1" />
  <defs
     id="defs1" />
  <g
     inkscape:label="Warstwa 1"
     inkscape:groupmode="layer"
     id="layer1"
     transform="translate(15.018625,-73.879798)">
    <g
       id="g3"
       transform="translate(237.1852,23.547)">
      <path
         id="path2"
         style="font-size:11.3257px;font-family:'Zen Dots';-inkscape-font-specification:'Zen Dots, Normal';fill:#ffffff;stroke-width:0.94381"
         d="m -229.67166,50.3334 c -7.26001,-0.037 -12.81513,1.6315 -16.66514,5.0049 -7.8506,6.87855 -7.79475,23.035685 0,29.8653 3.85001,3.3367 9.40513,5.0049 16.66514,5.0049 h 20.35017 v -7.15 h -19.74504 c -4.76667,0 -8.30537,-1.0084 -10.61538,-3.0251 -2.31,-2.0533 -3.4649,-5.3168 -3.4649,-9.7901 0,-4.4733 1.1549,-7.7181 3.4649,-9.7348 2.31001,-2.0167 5.84871,-3.0251 10.61538,-3.0251 h 19.19469 v -7.0399 z m 25.8501,0.2749 v 39.3253 h 8.79998 V 50.6083 Z m 30.90974,0 -17.71003,39.3253 h 9.57047 l 3.73983,-8.3055 h 22.38519 l 3.73983,8.3055 h 9.56996 L -159.3266,50.6083 Z m 6.43526,6.8751 h 0.71521 l 7.64501,16.9948 h -16.00523 z"
         sodipodi:nodetypes="cccsccscssscccccccccccccccccccccc" />
      <path
         id="path3"
         style="fill:#06c7ff;fill-opacity:1;stroke-width:1.96314"
         d="m -220.86268,95.4006 7.00681,4.0406 -5.96191,3.1275 -10.36113,-5.7857 -3.92276,2.774 v 4.871 l 5.81567,3.2685 -9.65833,5.7325 v 5.5914 l 5.05809,2.3032 9.43147,-5.3666 v 6.8952 l 4.28966,2.3812 4.2075,-2.3859 v -11.5781 l 6.17274,-3.5253 v 8.0697 l 7.18044,-4.3728 v 6.4962 l -10.1291,5.7692 v 5.3221 l 4.15014,2.0821 6.13451,-3.4639 v 11.4649 l 4.28346,2.7616 h 0.60254 l 4.28295,-2.7616 v -11.4649 l 6.13502,3.4639 4.15014,-2.0821 v -5.3221 l -10.1291,-5.7692 v -6.4962 l 7.17992,4.3728 v -8.0697 l 6.17327,3.5253 v 11.5781 l 4.20749,2.3859 4.28966,-2.3812 v -6.8952 l 9.43095,5.3666 5.05861,-2.3032 v -5.5914 l -9.65833,-5.7325 5.81515,-3.2685 v -4.871 l -3.92275,-2.774 -10.36113,5.7857 -5.96191,-3.1275 7.00681,-4.0406 h -2.61225 l -7.09517,4.0933 8.68319,4.5558 10.25984,-5.7283 2.70113,1.911 v 3.4339 l -7.1205,4.0002 10.96161,6.5061 v 4.0096 l -3.68712,1.68 -10.80244,-6.1459 v 8.3695 l -2.97914,1.6547 -2.90887,-1.6511 v -11.577 l -8.78034,-5.0137 v 7.998 l -7.18044,-4.3744 v 9.5725 l 10.12909,5.7712 v 3.7585 l -2.81068,1.4107 -7.47448,-4.2199 v 12.9858 l -3.2799,2.1156 h -0.002 -0.002 l -3.27939,-2.1156 v -12.9858 l -7.47448,4.2199 -2.8112,-1.4107 v -3.7585 l 10.1291,-5.7712 v -9.5725 l -7.17992,4.3744 v -7.998 l -8.78034,5.0137 v 11.577 l -2.90938,1.6511 -2.97915,-1.6547 v -8.3695 l -10.80193,6.1464 -3.68711,-1.6805 v -4.0096 l 10.96109,-6.5061 -7.11998,-4.0002 v -3.4339 l 2.70113,-1.911 10.25932,5.7283 8.68319,-4.5558 -7.09517,-4.0933 z m 16.42276,0 3.43545,5.934 h 4.14084 4.14031 l 3.43597,-5.934 h -1.50637 l -2.68046,4.6307 h -3.38945 -3.38998 l -2.68045,-4.6307 z" />
    </g>
  </g>
</svg>
