<svg width="125mm" height="125mm" viewBox="0 0 125 125" xmlns="http://www.w3.org/2000/svg"><g transform="translate(259.844 -32.576)"><rect width="125" height="125" x="-259.844" y="32.576" ry=".407"/><path style="-inkscape-font-specification:'Zen Dots, Normal'" d="M-230.106 52.481c-7.26-.037-12.815 1.632-16.665 5.005-7.85 6.879-7.794 23.036 0 29.865 3.85 3.337 9.405 5.005 16.665 5.005h20.35v-7.15H-229.5c-4.767 0-8.306-1.008-10.616-3.025-2.31-2.053-3.465-5.317-3.465-9.79 0-4.473 1.155-7.718 3.465-9.735 2.31-2.016 5.849-3.025 10.616-3.025h19.194v-7.04zm25.85.275v39.325h8.8V52.756zm30.91 0l-17.71 39.325h9.57l3.74-8.305h22.386l3.74 8.305h9.57l-17.71-39.325zm6.436 6.875h.715l7.645 16.995h-16.005z" font-size="11.326" font-family="Zen Dots" fill="#fff"/><path d="M-221.297 97.548l7.007 4.041-5.962 3.128-10.36-5.786-3.924 2.774v4.87l5.816 3.27-9.658 5.732v5.591l5.058 2.303 9.431-5.366V125l4.29 2.381 4.208-2.386v-11.578l6.172-3.525v8.07l7.18-4.373v6.496l-10.128 5.77v5.321l4.15 2.082 6.134-3.463v11.464l4.284 2.762h.602l4.283-2.762v-11.464l6.135 3.463 4.15-2.082v-5.322l-10.129-5.769v-6.496l7.18 4.373v-8.07l6.173 3.525v11.578l4.208 2.386 4.29-2.38v-6.896l9.43 5.366 5.06-2.303v-5.591l-9.66-5.733 5.816-3.268v-4.871l-3.923-2.774-10.36 5.786-5.963-3.128 7.007-4.04h-2.612l-7.095 4.093 8.683 4.556 10.26-5.729 2.7 1.911v3.434l-7.12 4 10.962 6.506v4.01l-3.687 1.68-10.803-6.146v8.37l-2.979 1.654-2.909-1.65V112.66l-8.78-5.013v7.998l-7.18-4.375v9.573l10.129 5.77v3.76l-2.811 1.41-7.475-4.22v12.986l-3.28 2.116h-.003l-3.28-2.116v-12.986l-7.474 4.22-2.812-1.41v-3.76l10.13-5.77v-9.573l-7.18 4.375v-7.998l-8.78 5.013v11.577l-2.91 1.651-2.98-1.654v-8.37l-10.801 6.147-3.687-1.68v-4.01l10.96-6.507-7.12-4v-3.434l2.702-1.91 10.26 5.728 8.682-4.556-7.095-4.094zm16.423 0l3.436 5.934h8.28l3.437-5.934h-1.507l-2.68 4.631h-6.78l-2.68-4.63z" fill="#06c7ff"/></g></svg>