<?xml version="1.0" encoding="UTF-8" standalone="no"?>
<svg
   width="175.64276"
   height="310.53073"
   viewBox="0 0 46.471995 82.161006"
   version="1.1"
   id="svg2"
   sodipodi:docname="cia_navbar_logo.svg"
   inkscape:version="1.3.2 (091e20e, 2023-11-25, custom)"
   xmlns:inkscape="http://www.inkscape.org/namespaces/inkscape"
   xmlns:sodipodi="http://sodipodi.sourceforge.net/DTD/sodipodi-0.dtd"
   xmlns="http://www.w3.org/2000/svg"
   xmlns:svg="http://www.w3.org/2000/svg">
  <defs
     id="defs2" />
  <sodipodi:namedview
     id="namedview2"
     pagecolor="#505050"
     bordercolor="#eeeeee"
     borderopacity="1"
     inkscape:showpageshadow="0"
     inkscape:pageopacity="0"
     inkscape:pagecheckerboard="0"
     inkscape:deskcolor="#505050"
     inkscape:zoom="0.82808493"
     inkscape:cx="-25.359718"
     inkscape:cy="39.850985"
     inkscape:window-width="2560"
     inkscape:window-height="1369"
     inkscape:window-x="-8"
     inkscape:window-y="-8"
     inkscape:window-maximized="1"
     inkscape:current-layer="svg2" />
  <path
     d="M 46.472,17.082 42.432,24.089 39.304,18.127 45.09,7.766 42.316,3.843 H 37.445 L 34.176,9.659 28.444,0 h -5.592 l -2.303,5.059 5.367,9.431 h -6.895 l -2.382,4.29 2.386,4.207 h 11.578 l 3.526,6.173 h -8.07 l 4.373,7.18 h -6.496 l -5.77,-10.129 h -5.322 l -2.082,4.15 3.464,6.135 H 2.761 L 0,40.779 v 0.603 l 2.761,4.283 h 11.465 l -3.464,6.135 2.082,4.15 h 5.322 l 5.77,-10.129 h 6.496 l -4.373,7.18 h 8.07 l -3.526,6.173 H 19.025 l -2.386,4.208 2.382,4.29 h 6.895 l -5.367,9.43 2.303,5.059 h 5.592 l 5.732,-9.658 3.269,5.815 h 4.87 l 2.775,-3.923 -5.786,-10.361 3.128,-5.962 4.04,7.007 v -2.613 l -4.092,-7.095 -4.556,8.683 5.728,10.26 -1.91,2.701 h -3.435 l -4,-7.12 -6.506,10.962 h -4.01 l -1.68,-3.688 6.146,-10.802 h -8.369 l -1.655,-2.98 1.651,-2.908 H 31.36 l 5.014,-8.78 h -7.998 l 4.374,-7.18 h -9.572 l -5.771,10.128 h -3.759 l -1.41,-2.81 4.22,-7.475 H 3.472 l -2.116,-3.28 v -0.004 l 2.116,-3.28 h 12.985 l -4.22,-7.474 1.411,-2.81 h 3.759 l 5.771,10.127 h 9.572 l -4.374,-7.18 h 7.998 L 31.36,21.681 H 19.783 l -1.65,-2.91 1.654,-2.979 h 8.37 L 22.01,4.992 23.69,1.304 h 4.01 l 6.506,10.962 4,-7.12 h 3.434 l 1.911,2.7 -5.728,10.26 4.556,8.683 4.093,-7.095 z m 0,16.423 -5.934,3.435 v 8.281 l 5.934,3.436 v -1.506 l -4.63,-2.68 v -6.78 l 4.63,-2.68 z"
     fill="#06c7ff"
     id="path2" />
</svg>
