<?xml version="1.0" encoding="UTF-8" standalone="no"?>
<!-- Created with Inkscape (http://www.inkscape.org/) -->

<svg
   width="204.33511mm"
   height="202.58116mm"
   viewBox="0 0 204.33511 202.58116"
   version="1.1"
   id="svg1"
   inkscape:version="1.3.2 (091e20e, 2023-11-25, custom)"
   sodipodi:docname="cia_logo_footer.svg"
   xmlns:inkscape="http://www.inkscape.org/namespaces/inkscape"
   xmlns:sodipodi="http://sodipodi.sourceforge.net/DTD/sodipodi-0.dtd"
   xmlns="http://www.w3.org/2000/svg"
   xmlns:svg="http://www.w3.org/2000/svg">
  <sodipodi:namedview
     id="namedview1"
     pagecolor="#505050"
     bordercolor="#eeeeee"
     borderopacity="1"
     inkscape:showpageshadow="0"
     inkscape:pageopacity="0"
     inkscape:pagecheckerboard="0"
     inkscape:deskcolor="#505050"
     inkscape:document-units="mm"
     inkscape:zoom="0.51045875"
     inkscape:cx="374.17323"
     inkscape:cy="348.70594"
     inkscape:window-width="2560"
     inkscape:window-height="1369"
     inkscape:window-x="-8"
     inkscape:window-y="-8"
     inkscape:window-maximized="1"
     inkscape:current-layer="layer1" />
  <defs
     id="defs1" />
  <g
     inkscape:label="Warstwa 1"
     inkscape:groupmode="layer"
     id="layer1"
     transform="translate(-34.13124,-45.50832)">
    <g
       id="g1">
      <path
         id="path56"
         style="stroke-width:0.305471"
         d="M 238.46635,146.79888 A 102.16755,101.29058 0 0 1 136.2988,248.08948 102.16755,101.29058 0 0 1 34.13124,146.79888 102.16755,101.29058 0 0 1 136.2988,45.50832 102.16755,101.29058 0 0 1 238.46635,146.79888 Z" />
      <path
         id="path58"
         style="font-size:11.3257px;font-family:'Zen Dots';-inkscape-font-specification:'Zen Dots, Normal';fill:#ffffff;stroke-width:0.94381"
         d="m 134.65884,58.94318 -0.24236,8.0941 8.87491,0.2656 0.0444,-1.4712 -7.06417,-0.2119 0.0563,-1.8903 6.40788,0.1917 0.0434,-1.4717 -6.40736,-0.1917 0.0532,-1.7885 7.06417,0.2113 0.0444,-1.4717 z m -8.00571,0.601 -1.80506,0.1613 0.72192,8.0656 7.70496,-0.6893 -0.13126,-1.4666 -5.8999,0.5281 z m -5.69009,0.9178 c -0.34467,-0.022 -0.73659,0.015 -1.17564,0.1101 l -6.65851,1.4676 1.71152,7.8915 6.88227,-1.5043 c 0.87808,-0.1904 1.48578,-0.523 1.82315,-0.9979 0.34316,-0.4839 0.43397,-1.0986 0.27233,-1.8438 -0.0992,-0.4575 -0.25754,-0.8134 -0.47491,-1.0676 -0.21897,-0.2615 -0.51024,-0.4457 -0.87333,-0.5524 0.41342,-0.4451 0.54136,-1.0327 0.38292,-1.7632 -0.15845,-0.7305 -0.49096,-1.2305 -0.99735,-1.4992 -0.25031,-0.1389 -0.54777,-0.219 -0.89245,-0.2408 z m 33.11787,0.385 -1.72237,7.9127 1.77095,0.3855 1.72237,-7.9127 z m 4.05557,0.8155 -2.42776,7.7256 1.72909,0.5431 1.74822,-5.5645 3.71863,7.2822 1.75028,0.5504 2.42776,-7.7256 -1.72857,-0.5432 -1.74512,5.5537 -3.72225,-7.2719 z m -37.79976,0.3302 c 0.40112,0.026 0.64844,0.2551 0.74207,0.6868 0.13124,0.6051 -0.1388,0.9804 -0.81028,1.126 l -4.68189,1.0154 -0.38447,-1.7709 4.68188,-1.0155 c 0.16787,-0.036 0.31899,-0.051 0.45269,-0.042 z m -12.57081,1.7947 -2.63085,0.9514 -0.67541,8.8552 1.85312,-0.6702 0.14263,-1.8702 4.33513,-1.5673 1.30586,1.3461 1.85312,-0.6702 z m 13.48445,1.3488 v 5e-4 c 0.40292,0.034 0.65469,0.2839 0.75551,0.7488 0.13764,0.6346 -0.12951,1.0247 -0.80099,1.1704 l -4.90306,1.0635 -0.40824,-1.8815 4.90358,-1.0635 c 0.16787,-0.036 0.3189,-0.049 0.4532,-0.038 z m 48.35674,0.3265 -3.46336,7.32 4.48448,2.1218 c 1.32407,0.6265 2.49812,0.8016 3.52227,0.5261 1.02414,-0.2756 1.82015,-1.0136 2.38848,-2.2148 0.56834,-1.2012 0.63435,-2.2854 0.19792,-3.252 -0.43643,-0.9666 -1.31659,-1.7632 -2.64066,-2.3896 l -3.28094,-1.5399 z m -62.606,0.1065 2.67064,2.7559 -3.09904,1.1209 0.29042,-3.8267 z m -5.79396,0.5917 -8.86923,4.546 1.86965,3.6483 1.63298,-0.8366 -1.19838,-2.3384 1.79421,-0.9193 3.02152,5.8958 1.61282,-0.8263 -3.02204,-5.8963 2.19729,-1.126 1.19837,2.3383 1.63298,-0.8366 z m 69.41333,1.3978 2.73368,1.293 c 0.85996,0.4069 1.42277,0.903 1.68879,1.4883 0.26925,0.5785 0.21167,1.2739 -0.1726,2.0861 -0.38105,0.8053 -0.88204,1.2908 -1.50327,1.4563 -0.62124,0.1655 -1.36212,0.045 -2.22208,-0.3623 l -2.73317,-1.2929 z m 10.35027,4.4292 v 5e-4 c -0.13373,0 -0.26575,0.012 -0.39635,0.029 -1.04065,0.133 -1.935,0.7619 -2.68356,1.8872 -0.75256,1.1317 -0.99213,2.2061 -0.71675,3.2236 0.27964,1.0111 1.02032,1.9163 2.22105,2.7151 l 1.81022,1.204 c 1.21337,0.8071 2.34106,1.1438 3.38171,1.0108 1.04482,-0.1392 1.94324,-0.7747 2.69596,-1.9063 0.74835,-1.1254 0.98289,-2.1933 0.70332,-3.2045 -0.27541,-1.0174 -1.0352,-1.9403 -2.27997,-2.7683 v 5e-4 l -1.69757,-1.1291 c -1.08917,-0.7245 -2.10199,-1.0785 -3.03806,-1.0625 z m -91.17118,0.6997 c -0.47769,0.04 -0.97528,0.2387 -1.49293,0.5953 l -5.58674,3.8484 4.59352,6.6688 1.49242,-1.0278 -1.68982,-2.4531 3.07785,-2.1203 3.11712,1.4702 1.69705,-1.1694 -3.26078,-1.4397 c 0.45611,-0.4425 0.70656,-0.9309 0.75086,-1.4656 0.0442,-0.5348 -0.1416,-1.1037 -0.55707,-1.7068 -0.48828,-0.7089 -1.04482,-1.1049 -1.67019,-1.1876 -0.15479,-0.022 -0.31206,-0.026 -0.47129,-0.012 z m 91.61457,0.9498 c 0.55705,0.01 1.18477,0.2438 1.88257,0.708 l 1.49035,0.9917 c 0.69775,0.4643 1.15777,0.9512 1.38028,1.4619 0.22246,0.5108 0.20232,1.0728 -0.061,1.6867 -0.21276,0.4322 -0.69855,1.1054 -0.81494,1.2263 h -5.2e-4 c -0.4685,0.4861 -0.9815,0.7256 -1.5384,0.7178 -0.55078,0 -1.17847,-0.2397 -1.88258,-0.708 l -1.46141,-0.9725 c -0.71662,-0.4768 -1.18567,-0.9704 -1.40818,-1.4811 -0.22256,-0.5108 -0.20032,-1.0763 0.0672,-1.6965 l 5.2e-4,5e-4 c 0.0401,-0.1084 0.47458,-0.8511 0.81442,-1.2263 0.46439,-0.4801 0.97464,-0.7163 1.53169,-0.7085 z m -91.6833,0.755 c 0.23918,0.028 0.47218,0.2063 0.69919,0.5359 0.22268,0.3233 0.30666,0.6049 0.25166,0.8444 -0.0488,0.2354 -0.21009,0.4471 -0.48369,0.6356 l -3.92379,2.6893 -1.2268,-1.7818 3.91707,-2.6981 c 0.27359,-0.1885 0.52912,-0.2636 0.76636,-0.2253 z m 101.69044,5.2411 c -1.04887,-0.023 -2.02683,0.4659 -2.93419,1.4676 -0.91228,1.0074 -1.30824,2.0343 -1.18701,3.0814 0.12639,1.0414 0.72437,2.0466 1.79318,3.0148 l 1.61127,1.4594 c 1.08006,0.9783 2.14525,1.4787 3.19412,1.5017 1.05393,0.017 2.03674,-0.4775 2.94917,-1.4847 0.90716,-1.0018 1.29783,-2.0234 1.17151,-3.0649 -0.12126,-1.047 -0.73582,-2.0722 -1.84382,-3.0758 h -5.2e-4 l -1.51102,-1.3684 c -1.10799,-1.0037 -2.18877,-1.5137 -3.24269,-1.5311 z m -110.73019,0.4098 c -1.05375,0.026 -2.13038,0.545 -3.2303,1.5575 v 5e-4 l -1.49965,1.3808 c -1.09989,1.0125 -1.70619,2.0428 -1.81901,3.0908 -0.11792,1.0425 0.28046,2.0602 1.19579,3.0546 0.92062,0.9998 1.90784,1.4878 2.96158,1.4619 1.04862,-0.032 2.10362,-0.5364 3.16467,-1.5131 l 1.59938,-1.4723 c 1.0721,-0.987 1.66697,-2.0022 1.78491,-3.0447 0.11286,-1.048 -0.29135,-2.0717 -1.21182,-3.0717 -0.91549,-0.9942 -1.89693,-1.4757 -2.94555,-1.4443 z m 111.11466,1.2934 v 5e-4 c 0.0684,0 0.13695,0.011 0.20567,0.022 0.54968,0.091 1.13535,0.417 1.75649,0.9797 l 1.32653,1.2015 c 0.62108,0.5628 1.00354,1.1125 1.14773,1.6506 0.14415,0.5381 0.041,1.0908 -0.31057,1.6588 -0.27459,0.3959 -0.85449,0.9896 -0.98754,1.0919 h -0.001 c -0.53549,0.4111 -1.07824,0.5715 -1.62781,0.4811 -0.54407,-0.086 -1.12972,-0.4111 -1.75648,-0.9787 l -1.3007,-1.1798 c -0.63787,-0.578 -1.02884,-1.1357 -1.17305,-1.6738 -0.14425,-0.5381 -0.0377,-1.0935 0.31884,-1.6671 0.0557,-0.1012 0.59575,-0.7708 0.98754,-1.0914 0.46421,-0.355 0.93551,-0.5203 1.41438,-0.4956 z m -111.28106,0.4139 c 0.40884,0.022 0.81355,0.1831 1.21388,0.4843 0.36938,0.3093 0.90803,0.9408 0.99787,1.0826 l -5.2e-4,10e-4 c 0.3609,0.5705 0.4721,1.1254 0.33228,1.6645 -0.13437,0.5341 -0.51267,1.0876 -1.13481,1.6604 l -1.29191,1.189 c -0.63339,0.5829 -1.22458,0.9211 -1.77354,1.016 -0.54896,0.095 -1.09254,-0.061 -1.63142,-0.4682 l 5.1e-4,-5e-4 c -0.0958,-0.065 -0.71413,-0.6629 -0.99787,-1.0821 -0.35601,-0.5651 -0.46438,-1.117 -0.32453,-1.6562 0.13983,-0.5393 0.51817,-1.0928 1.13482,-1.6604 l 1.31723,-1.2123 c 0.61666,-0.5676 1.19873,-0.8989 1.7477,-0.9938 0.13724,-0.024 0.27403,-0.032 0.41031,-0.024 z m 120.57042,5.6705 -6.24872,5.1506 1.1529,1.3984 2.29857,-1.895 2.37712,2.884 -1.19631,3.2319 1.31103,1.5906 1.15342,-3.3724 c 0.48018,0.4164 0.98893,0.6231 1.52549,0.6211 0.53654,0 1.08694,-0.2359 1.65209,-0.7017 0.66415,-0.5475 1.01071,-1.1361 1.03921,-1.7663 0.0333,-0.6243 -0.21673,-1.2597 -0.74982,-1.9064 z m -129.76573,0.1974 -5.49165,6.6869 6.2575,5.1398 1.15032,-1.4005 -2.24948,-1.8474 3.78117,-4.6038 -1.13792,-0.9344 -3.78065,4.6034 -1.73322,-1.4232 4.34185,-5.286 z m 129.78226,2.1373 3.02566,3.6706 c 0.21129,0.2563 0.30812,0.5039 0.29042,0.7436 -0.007,0.2407 -0.16508,0.4885 -0.47387,0.7431 -0.30296,0.2497 -0.57615,0.3572 -0.81959,0.323 -0.23863,-0.028 -0.46359,-0.1704 -0.6749,-0.4268 l -3.01687,-3.6778 z m -136.91515,6.7211 -0.7922,1.2945 0.28473,4.5687 -0.0294,0.049 -4.1982,1.8262 -0.79168,1.2945 6.90759,4.2266 0.94568,-1.5461 -4.97541,-3.0438 2.81585,-1.3043 3.50728,2.1456 0.94568,-1.5456 -3.50676,-2.1456 -0.12713,-3.0918 4.97541,3.0442 0.94568,-1.5456 z m 150.23062,10.3089 -8.87594,0.3039 0.87023,1.7683 1.87482,-0.064 2.03553,4.1356 -1.19424,1.4459 0.87023,1.7684 5.65495,-6.8482 z m -0.68471,1.8144 0.0646,0.1317 -2.44429,2.958 -1.45573,-2.9569 z m -154.36629,0.1731 c -0.47,0.01 -0.91136,0.1153 -1.32447,0.3152 -0.95122,0.4542 -1.72227,1.3678 -2.31252,2.7414 h 5.2e-4 l -0.8046,1.8733 c -0.59023,1.3735 -0.72311,2.5614 -0.39791,3.5641 0.31829,0.9996 1.09818,1.7659 2.33991,2.2996 1.24875,0.5364 2.34884,0.5788 3.30005,0.1246 0.94426,-0.4571 1.70074,-1.3489 2.27015,-2.6738 l 0.85834,-1.9978 c 0.57528,-1.3389 0.70377,-2.5087 0.38551,-3.5083 -0.32522,-1.0027 -1.11192,-1.7718 -2.36058,-2.3084 -0.69852,-0.3001 -1.35011,-0.4432 -1.9544,-0.4299 z m 44.11514,0.5033 c -7.26001,-0.037 -12.81513,1.6315 -16.66514,5.0049 -3.85,3.3733 -5.77484,8.3417 -5.77484,14.905 0,6.6 1.92484,11.587 5.77484,14.9603 3.85001,3.3367 9.40513,5.0049 16.66514,5.0049 h 20.35017 v -7.15 h -19.74504 c -4.76667,0 -8.30537,-1.0084 -10.61538,-3.0251 -2.31,-2.0533 -3.4649,-5.3168 -3.4649,-9.7901 0,-4.4733 1.1549,-7.7181 3.4649,-9.7348 2.31001,-2.0167 5.84871,-3.0251 10.61538,-3.0251 h 19.19469 v -7.0399 z m 25.8501,0.2749 v 39.3253 h 8.79998 v -39.3253 z m 30.90974,0 -17.71003,39.3253 h 9.57047 l 3.73983,-8.3055 h 22.38519 l 3.73983,8.3055 h 9.56996 l -17.71003,-39.3253 z m -101.04086,1.0387 v 5e-4 c 0.21763,-0.01 0.44877,0.015 0.69298,0.07 0.46352,0.1314 1.21296,0.4876 1.35289,0.5803 v 0 c 0.5625,0.3733 0.89024,0.8341 0.98288,1.3833 0.0956,0.5424 -0.0232,1.2023 -0.35708,1.9793 l -0.6935,1.6128 c -0.33997,0.7908 -0.74124,1.3413 -1.20354,1.6521 -0.4623,0.3109 -1.02237,0.3905 -1.68052,0.2392 l 5.2e-4,-5e-4 c -0.11388,-0.02 -0.92263,-0.313 -1.35289,-0.5798 -0.55582,-0.3703 -0.88039,-0.8299 -0.97307,-1.3792 -0.0927,-0.5493 0.0267,-1.2098 0.3576,-1.9798 l 0.70693,-1.6443 c 0.33099,-0.7699 0.72729,-1.3102 1.1896,-1.6211 0.28894,-0.1942 0.61449,-0.2988 0.9772,-0.3137 z m 158.54639,3.5197 -7.54579,2.9383 0.65732,1.6883 7.5458,-2.9378 z m -51.07027,2.3167 h 0.71521 l 7.64501,16.9948 h -16.00523 z m 52.62522,1.5068 -7.77731,2.2552 0.50436,1.7405 2.86081,-0.83 1.04077,3.59 -2.37815,2.4939 0.57412,1.9797 2.39469,-2.6401 c 0.27607,0.5725 0.66098,0.964 1.15445,1.1746 0.49347,0.2107 1.09183,0.2136 1.79524,0.01 0.8267,-0.2397 1.37792,-0.6434 1.65364,-1.2108 0.27782,-0.5601 0.30005,-1.2424 0.0667,-2.0474 z m -166.61154,1.6682 -1.08727,3.93 c -0.39799,1.4411 -0.36569,2.6348 0.0977,3.5816 0.46333,0.9468 1.34746,1.5966 2.65203,1.9498 1.31184,0.3552 2.40687,0.2412 3.28456,-0.3426 0.87038,-0.5857 1.50068,-1.6002 1.89135,-3.0432 l 1.09503,-4.0448 -1.42111,-0.3849 -1.06246,3.9248 c -0.25651,0.9475 -0.64739,1.5965 -1.17254,1.9471 -0.53244,0.3486 -1.24302,0.4026 -2.13217,0.1618 -0.88915,-0.2407 -1.4722,-0.6451 -1.74873,-1.2128 -0.27657,-0.5677 -0.28645,-1.3249 -0.03,-2.2723 l 1.03301,-3.8157 z m 165.70203,0.4821 1.32498,4.5687 c 0.0925,0.319 0.0833,0.5849 -0.0279,0.7979 -0.10181,0.2182 -0.34533,0.383 -0.72967,0.4945 -0.37709,0.1094 -0.67056,0.1006 -0.88057,-0.027 -0.20791,-0.1205 -0.35812,-0.3403 -0.45062,-0.6594 l -1.31361,-4.5718 z m -161.42012,35.449 -7.97522,1.265 0.2837,1.7901 3.26647,-0.5183 0.42064,2.651 -2.84789,3.1579 0.35347,2.2263 3.47162,-3.9223 4.50361,2.6567 -0.35295,-2.2257 -3.67213,-2.1125 -0.4222,-2.6619 3.2551,-0.5167 z m 158.80426,0.94 -1.06247,6.2756 c -0.13991,0.8264 -0.0479,1.5044 0.27595,2.034 0.31767,0.5209 0.86392,0.8472 1.63815,0.9782 0.77423,0.1311 1.40058,0 1.87947,-0.3824 0.47271,-0.3947 0.7789,-1.0055 0.91881,-1.8319 l 0.67696,-3.9977 c 0.0555,-0.3275 0.1759,-0.5637 0.36122,-0.7085 0.17914,-0.1535 0.43993,-0.2011 0.78238,-0.1431 0.34245,0.058 0.57671,0.1897 0.7028,0.3948 0.1199,0.1964 0.15216,0.4584 0.0966,0.786 l -1.09812,6.4187 1.45159,0.246 1.11931,-6.6105 c 0.1399,-0.8264 0.0437,-1.5013 -0.28887,-2.0247 -0.3313,-0.5309 -0.89193,-0.8631 -1.68104,-0.9968 -0.79657,-0.1348 -1.43446,0 -1.91461,0.3881 -0.48633,0.3848 -0.79957,0.99 -0.93948,1.8164 l -0.67696,3.9977 c -0.0542,0.3202 -0.1673,0.5574 -0.33899,0.7121 -0.17914,0.1539 -0.42868,0.203 -0.7488,0.1488 -0.32011,-0.054 -0.53578,-0.1824 -0.64698,-0.385 -0.1187,-0.2039 -0.15088,-0.4659 -0.0966,-0.786 l 1.0418,-6.0838 z m -157.17077,8.6114 -7.80521,2.1564 2.05983,7.4559 1.41955,-0.3917 -1.57768,-5.7097 6.38617,-1.7643 z m 155.41532,0.9865 -0.44545,1.7564 7.84965,1.9901 0.44545,-1.757 z m -0.48989,2.6582 -0.60617,1.7079 5.34386,2.6184 -2.36884,1.5266 -3.9486,-1.402 -0.60668,1.7074 3.93826,1.3983 0.87902,2.7038 -5.795,-1.3483 -0.60616,1.7074 7.9344,1.8557 0.50797,-1.4299 -1.36839,-3.899 3.51658,-2.1528 0.50798,-1.4304 z m -152.51059,4.5486 -7.62796,2.7187 0.60823,1.7068 7.62796,-2.7187 z m 0.84336,2.8127 -7.34684,3.405 0.76171,1.6438 5.29219,-2.4526 -0.47594,3.067 -3.73053,1.7286 0.76223,1.6443 3.73001,-1.729 2.64325,1.6086 -5.29219,2.4531 0.76223,1.6438 7.34684,-3.4049 -0.63821,-1.3772 -3.96048,-2.2965 -0.0238,-0.051 0.8077,-4.5061 z m 148.56251,4.0421 c -0.15847,0.017 -0.3114,0.054 -0.45889,0.1101 -0.58649,0.2166 -1.07094,0.6977 -1.45366,1.4433 l -3.098,6.0353 7.20421,3.698 0.82734,-1.6123 -2.64996,-1.3601 1.70687,-3.3249 3.44113,-0.1814 0.94155,-1.834 -3.55379,0.2765 c 0.19216,-0.6058 0.18071,-1.1545 -0.0336,-1.6464 -0.21429,-0.4919 -0.64706,-0.9053 -1.29863,-1.2397 -0.57433,-0.2948 -1.09916,-0.4164 -1.57458,-0.3644 z m 0.25218,1.8237 v 5e-4 c 0.14496,0.024 0.30671,0.081 0.48472,0.1726 0.34933,0.1792 0.55667,0.3872 0.62167,0.6243 0.0685,0.2304 0.0267,0.4936 -0.12505,0.7891 l -2.1823,4.2266 -1.92443,-0.9881 2.17196,-4.2318 c 0.15171,-0.2956 0.34136,-0.4825 0.56844,-0.5612 0.11191,-0.044 0.24004,-0.055 0.38499,-0.032 z m -5.533,6.2425 -4.97179,7.3567 6.70916,4.5346 4.97179,-7.3572 -1.21957,-0.8242 -3.95738,5.8554 -1.56735,-1.0594 3.58945,-5.3107 -1.21956,-0.8248 -3.58945,5.3113 -1.4826,-1.002 3.95738,-5.8555 z m -136.76788,0.7214 -8.79997,1.1989 1.04438,1.6712 1.85828,-0.2532 2.44326,3.9093 -1.04231,1.5591 1.04438,1.6712 4.93458,-7.384 z m -0.49816,1.8743 0.078,0.1246 -2.13372,3.1899 -1.74667,-2.7951 z m 3.25717,2.6024 -3.19722,2.5663 1.14825,1.4309 2.04897,-1.6443 1.26194,1.572 -5.16661,4.147 1.1343,1.4134 5.16661,-4.1471 1.54564,1.9255 -2.04897,1.6443 1.14825,1.4309 3.0148,-2.42 -0.51986,6.4276 -2.01022,2.0737 1.30948,1.2692 2.01797,-2.082 6.60631,-0.7519 -0.83612,1.0898 4.61884,3.543 -8.00985,0.4506 -0.83406,1.0872 6.89261,5.2871 0.89607,-1.1684 -4.81677,-3.6944 8.01915,-0.4439 0.83406,-1.0873 -6.70398,-5.1418 -0.0227,0.03 -1.56993,-1.5219 -4.66845,0.5855 0.4315,-4.6922 -1.45573,-1.4118 z m 128.39888,2.896 -4.16409,4.8136 c -0.54819,0.6339 -0.82158,1.2614 -0.81958,1.8821 0.001,0.6102 0.29907,1.172 0.89296,1.6857 0.59389,0.5138 1.19538,0.7301 1.80506,0.6485 0.60891,-0.092 1.18751,-0.4554 1.73581,-1.0893 l 2.65307,-3.0665 c 0.21735,-0.2513 0.4424,-0.391 0.67593,-0.4186 0.23276,-0.038 0.48043,0.057 0.74311,0.2837 0.26273,0.2272 0.39535,0.4611 0.39635,0.7018 5.9e-4,0.2302 -0.10769,0.4711 -0.32504,0.7224 l -4.26899,4.9176 1.11311,0.9632 4.38681,-5.0705 c 0.54827,-0.6339 0.81575,-1.2609 0.80305,-1.881 -0.008,-0.6257 -0.31454,-1.2003 -0.91984,-1.7239 -0.61103,-0.5285 -1.22351,-0.7493 -1.83813,-0.662 -0.61538,0.077 -1.19734,0.4318 -1.74563,1.0656 l -2.65255,3.067 c -0.21241,0.2456 -0.43234,0.3898 -0.65939,0.433 -0.23276,0.038 -0.47172,-0.049 -0.71727,-0.2615 -0.24557,-0.2124 -0.36357,-0.4341 -0.35347,-0.665 0.004,-0.2359 0.11316,-0.4765 0.32557,-0.722 l 4.04626,-4.6607 z m -11.50369,12.1114 -6.74274,5.0912 0.88728,1.1751 4.64571,-3.5083 -1.70067,7.8408 0.82631,1.094 6.93188,-5.2348 -0.88677,-1.1751 -4.84467,3.6582 1.70946,-7.8476 z m -4.10311,0.2754 a 1.0583333,1.0583333 0 0 0 -1.05833,1.0584 1.0583333,1.0583333 0 0 0 1.05833,1.0583 1.0583333,1.0583333 0 0 0 1.05833,-1.0583 1.0583333,1.0583333 0 0 0 -1.05833,-1.0584 z m -89.60642,6.4131 -7.29361,5.0674 1.68982,1.0139 1.54048,-1.0703 3.95273,2.3715 -0.21963,1.8629 1.68982,1.0139 1.03921,-8.8201 z m 83.79386,0.31 -2.41174,1.418 0.9617,8.829 1.6986,-0.999 -0.20309,-1.8644 3.9734,-2.3368 1.53117,1.0836 1.69861,-0.9989 z m -83.38613,1.5855 0.12661,0.076 -0.45062,3.8107 -2.82618,-1.6956 z m 82.96135,0.3064 3.13107,2.219 -2.84065,1.6707 -0.41703,-3.8148 z m -4.06074,0.8615 -9.12554,4.008 1.649,3.7538 1.67948,-0.738 -1.05627,-2.4055 1.84589,-0.8108 2.66392,6.0663 1.65933,-0.7287 -2.66444,-6.0663 2.26084,-0.9932 1.05627,2.4061 1.68,-0.738 z m -72.66843,1.2531 c -0.27407,0.018 -0.53738,0.065 -0.78962,0.1416 -1.00899,0.305 -1.79228,1.0729 -2.35076,2.3037 -0.5616,1.2376 -0.62507,2.3369 -0.19017,3.297 0.43802,0.9533 1.33767,1.7386 2.69906,2.3564 l 3.81579,1.7317 0.60875,-1.341 -3.70262,-1.68 c -0.89382,-0.4057 -1.47165,-0.8959 -1.73322,-1.4707 -0.25843,-0.5816 -0.19719,-1.2917 0.18345,-2.1306 0.38065,-0.8388 0.87318,-1.3491 1.47794,-1.5307 0.60477,-0.1816 1.35409,-0.069 2.24793,0.3364 l 3.59926,1.633 0.59893,-1.3198 -3.70313,-1.7058 c -1.0187,-0.4685 -1.93936,-0.6757 -2.76159,-0.6212 z m 62.99099,2.9761 -1.7353,0.5219 1.67794,5.5743 -7.16546,-3.9222 -1.757,0.5286 2.33423,7.7546 1.73529,-0.5225 -1.68103,-5.5851 7.16855,3.9331 1.757,-0.5287 z m -50.69923,1.31 -1.6335,4.935 c -0.18033,0.5448 -0.43258,0.8749 -0.75706,0.9902 -0.31495,0.1105 -0.77721,0.065 -1.38648,-0.137 l -0.67747,-0.2242 c -0.50175,-0.1661 -0.87796,-0.3623 -1.12913,-0.5886 -0.24876,-0.2335 -0.30827,-0.5474 -0.17777,-0.9416 0.019,-0.057 0.0465,-0.1276 0.0822,-0.2113 0.0356,-0.084 0.0762,-0.17 0.12144,-0.2584 l -1.72031,-0.5695 c -0.10709,0.1793 -0.19152,0.3625 -0.25322,0.5488 -0.25864,0.7813 -0.20346,1.4439 0.16537,1.9875 0.37838,0.5389 1.09767,0.9837 2.15852,1.3348 l 1.25781,0.4165 c 0.7813,0.2587 1.43121,0.3623 1.94923,0.3111 0.52039,-0.058 0.94628,-0.2633 1.27744,-0.615 0.33115,-0.3517 0.60097,-0.8431 0.80977,-1.4738 l 1.63349,-4.9351 z m 5.32215,1.4076 -5.24516,7.1665 1.92805,0.4082 1.10794,-1.5136 4.50929,0.955 0.39946,1.8325 1.92753,0.4082 -1.89033,-8.6775 z m 32.8104,0.6889 c -0.40429,0 -0.83709,0.028 -1.29863,0.1007 v 5e-4 l -2.01383,0.3163 c -1.4769,0.2317 -2.55322,0.7521 -3.22874,1.5612 -0.67668,0.8017 -0.91024,1.8697 -0.70073,3.2049 0.21089,1.3426 0.76118,2.2965 1.65209,2.8598 0.88973,0.5559 2.04744,0.7217 3.47214,0.4982 l 2.14767,-0.3375 c 1.4396,-0.226 2.49779,-0.7403 3.17449,-1.542 0.67551,-0.8091 0.90778,-1.8845 0.69711,-3.2272 -0.20972,-1.3351 -0.75875,-2.2806 -1.64848,-2.8365 -0.61249,-0.3873 -1.36365,-0.5868 -2.25309,-0.5984 z m -31.80736,0.9704 0.14418,0.03 0.81545,3.7497 -3.22461,-0.6827 z m 23.66729,0.2486 -1.51722,0.028 -3.69952,2.6965 -0.0563,0.001 -3.79719,-2.5574 -1.51722,0.028 0.15038,8.0966 1.81178,-0.033 -0.10852,-5.8312 2.61379,1.6728 0.0765,4.1108 1.81178,-0.034 -0.0765,-4.1103 2.53886,-1.7689 0.10852,5.8317 1.81178,-0.034 z m 7.81089,0.2853 c 0.44267,0 0.82323,0.073 1.14154,0.2144 0.50928,0.2257 0.87435,0.654 1.09554,1.2842 0.13556,0.4623 0.23339,1.2864 0.22944,1.4542 l -0.001,5e-4 c -0.0164,0.6749 -0.23197,1.1981 -0.64751,1.5689 -0.4082,0.3698 -1.03063,0.6202 -1.86604,0.7513 l -1.73426,0.2719 c -0.85037,0.1333 -1.52987,0.087 -2.03915,-0.1385 -0.50929,-0.2258 -0.87474,-0.6579 -1.09709,-1.2956 h 5.2e-4 c -0.0437,-0.107 -0.2261,-0.9474 -0.22945,-1.4536 0.0174,-0.6676 0.23394,-1.1872 0.64958,-1.5581 0.41566,-0.3709 1.03754,-0.6214 1.86552,-0.7513 l 1.76836,-0.277 c 0.3105,-0.049 0.59843,-0.073 0.86403,-0.071 z" />
      <path
         id="path61"
         style="fill:#06c7ff;fill-opacity:1;stroke-width:1.96314"
         d="m 112.30022,154.34378 7.00681,4.0406 -5.96191,3.1275 -10.36113,-5.7857 -3.92276,2.774 v 4.871 l 5.81567,3.2685 -9.65833,5.7325 v 5.5914 l 5.05809,2.3032 9.43147,-5.3666 v 6.8952 l 4.28966,2.3812 4.2075,-2.3859 v -11.5781 l 6.17274,-3.5253 v 8.0697 l 7.18044,-4.3728 v 6.4962 l -10.1291,5.7692 v 5.3221 l 4.15014,2.0821 6.13451,-3.4639 v 11.4649 l 4.28346,2.7616 h 0.60254 l 4.28295,-2.7616 v -11.4649 l 6.13502,3.4639 4.15014,-2.0821 v -5.3221 l -10.1291,-5.7692 v -6.4962 l 7.17992,4.3728 v -8.0697 l 6.17327,3.5253 v 11.5781 l 4.20749,2.3859 4.28966,-2.3812 v -6.8952 l 9.43095,5.3666 5.05861,-2.3032 v -5.5914 l -9.65833,-5.7325 5.81515,-3.2685 v -4.871 l -3.92275,-2.774 -10.36113,5.7857 -5.96191,-3.1275 7.00681,-4.0406 h -2.61225 l -7.09517,4.0933 8.68319,4.5558 10.25984,-5.7283 2.70113,1.911 v 3.4339 l -7.1205,4.0002 10.96161,6.5061 v 4.0096 l -3.68712,1.68 -10.80244,-6.1459 v 8.3695 l -2.97914,1.6547 -2.90887,-1.6511 v -11.577 l -8.78034,-5.0137 v 7.998 l -7.18044,-4.3744 v 9.5725 l 10.12909,5.7712 v 3.7585 l -2.81068,1.4107 -7.47448,-4.2199 v 12.9858 l -3.2799,2.1156 h -0.002 -0.002 l -3.27939,-2.1156 v -12.9858 l -7.47448,4.2199 -2.8112,-1.4107 v -3.7585 l 10.1291,-5.7712 v -9.5725 l -7.17992,4.3744 v -7.998 l -8.78034,5.0137 v 11.577 l -2.90938,1.6511 -2.97915,-1.6547 v -8.3695 l -10.80193,6.1464 -3.68711,-1.6805 v -4.0096 l 10.96109,-6.5061 -7.11998,-4.0002 v -3.4339 l 2.70113,-1.911 10.25932,5.7283 8.68319,-4.5558 -7.09517,-4.0933 z m 16.42276,0 3.43545,5.934 h 4.14084 4.14031 l 3.43597,-5.934 h -1.50637 l -2.68046,4.6307 h -3.38945 -3.38998 l -2.68045,-4.6307 z" />
    </g>
  </g>
</svg>
