<svg width="175.643" height="310.531" viewBox="0 0 46.472 82.161" xmlns="http://www.w3.org/2000/svg"><path d="M46.472 17.082l-4.04 7.007-3.128-5.962L45.09 7.766l-2.774-3.923h-4.871l-3.269 5.816L28.444 0h-5.592l-2.303 5.059 5.367 9.431h-6.895l-2.382 4.29 2.386 4.207h11.578l3.526 6.173h-8.07l4.373 7.18h-6.496l-5.77-10.129h-5.322l-2.082 4.15 3.464 6.135H2.761L0 40.779v.603l2.761 4.283h11.465L10.762 51.8l2.082 4.15h5.322l5.77-10.129h6.496l-4.373 7.18h8.07l-3.526 6.173H19.025l-2.386 4.208 2.382 4.29h6.895l-5.367 9.43 2.303 5.059h5.592l5.732-9.658 3.269 5.815h4.87l2.775-3.923-5.786-10.361 3.128-5.962 4.04 7.007v-2.613l-4.092-7.095-4.556 8.683 5.728 10.26-1.91 2.701h-3.435l-4-7.12-6.506 10.962h-4.01l-1.68-3.688 6.146-10.802h-8.369l-1.655-2.98 1.651-2.908H31.36l5.014-8.78h-7.998l4.374-7.18h-9.572l-5.771 10.128h-3.759l-1.41-2.81 4.22-7.475H3.472l-2.116-3.28v-.004l2.116-3.28h12.985l-4.22-7.474 1.411-2.81h3.759l5.771 10.127h9.572l-4.374-7.18h7.998l-5.014-8.78H19.783l-1.65-2.91 1.654-2.979h8.37l-6.147-10.8 1.68-3.688h4.01l6.506 10.962 4-7.12h3.434l1.911 2.7-5.728 10.26 4.556 8.683 4.093-7.095zm0 16.423l-5.934 3.435v8.281l5.934 3.436v-1.506l-4.63-2.68v-6.78l4.63-2.68z" fill="#06c7ff"/></svg>