<svg width="772.29" height="765.661" viewBox="0 0 204.335 202.581" xmlns="http://www.w3.org/2000/svg"><path d="M204.335 101.29a102.168 101.29 0 01-102.167 101.291A102.168 101.29 0 010 101.291 102.168 101.29 0 01102.168 0a102.168 101.29 0 01102.167 101.29z"/><path style="-inkscape-font-specification:'Zen Dots, Normal'" d="M100.528 13.435l-.243 8.094 8.875.266.045-1.472-7.065-.212.057-1.89 6.408.192.043-1.472-6.407-.192.053-1.788 7.064.211.044-1.471zm-8.006.6l-1.805.162.722 8.066 7.705-.69-.132-1.466-5.9.528zm-5.69.919a4.313 4.313 0 00-1.176.11l-6.658 1.467 1.711 7.892 6.882-1.504c.879-.19 1.486-.523 1.824-.998.343-.484.434-1.099.272-1.844-.1-.458-.258-.814-.475-1.068a1.75 1.75 0 00-.873-.552c.413-.445.541-1.033.383-1.763-.159-.73-.491-1.23-.998-1.5a2.09 2.09 0 00-.892-.24zm33.118.385l-1.723 7.912 1.771.386 1.723-7.913zm4.055.815l-2.428 7.726 1.73.543 1.748-5.565 3.718 7.283 1.75.55 2.428-7.726-1.728-.543-1.745 5.554-3.722-7.272zm-37.8.33c.402.026.649.255.743.687.13.605-.14.98-.81 1.126l-4.683 1.016-.384-1.771 4.682-1.016c.168-.036.319-.05.452-.042zm-12.57 1.795l-2.631.951-.676 8.856 1.854-.67.142-1.87 4.335-1.568 1.306 1.346 1.853-.67zm13.484 1.349c.403.034.655.284.756.75.137.634-.13 1.024-.801 1.17L82.17 22.61l-.409-1.881 4.904-1.064c.168-.036.319-.049.453-.038zm48.357.326l-3.463 7.32 4.484 2.122c1.324.627 2.498.802 3.522.526 1.024-.275 1.82-1.013 2.389-2.215.568-1.2.634-2.285.198-3.252-.437-.966-1.317-1.763-2.641-2.39l-3.281-1.539zm-62.606.107l2.67 2.756-3.099 1.12.29-3.826zm-5.794.592l-8.87 4.546 1.87 3.648 1.633-.837-1.198-2.338 1.794-.92 3.022 5.896 1.612-.826-3.022-5.896 2.198-1.126 1.198 2.338 1.633-.837zm69.413 1.397l2.734 1.293c.86.407 1.423.903 1.689 1.489.269.578.211 1.274-.173 2.086-.38.805-.882 1.29-1.503 1.456-.621.166-1.362.045-2.222-.362l-2.733-1.293zm10.35 4.43c-.133 0-.265.012-.396.03-1.04.132-1.935.761-2.683 1.886-.753 1.132-.993 2.206-.717 3.224.28 1.011 1.02 1.916 2.22 2.715l1.811 1.204c1.213.807 2.341 1.144 3.382 1.01 1.045-.138 1.943-.774 2.696-1.906.748-1.125.983-2.193.703-3.204-.275-1.017-1.035-1.94-2.28-2.768l-1.697-1.129c-1.09-.724-2.102-1.078-3.038-1.062zm-91.17.7c-.478.04-.976.238-1.494.595l-5.586 3.848 4.593 6.669 1.493-1.028-1.69-2.453 3.078-2.12 3.117 1.47 1.697-1.17-3.261-1.44c.456-.442.707-.93.75-1.465.045-.535-.14-1.104-.556-1.707-.488-.709-1.045-1.105-1.67-1.187a2.059 2.059 0 00-.472-.012zm91.614.95c.557.01 1.185.243 1.882.707l1.49.992c.699.464 1.159.951 1.381 1.462.223.51.202 1.072-.06 1.686a7.754 7.754 0 01-.816 1.227c-.469.486-.982.725-1.539.717-.55 0-1.178-.24-1.882-.708l-1.462-.972c-.716-.477-1.185-.97-1.408-1.481-.222-.51-.2-1.076.067-1.697.04-.108.475-.85.815-1.225.465-.48.975-.717 1.532-.709zm-91.683.754c.239.028.472.206.699.536.222.323.306.605.251.844-.048.236-.21.447-.483.636l-3.924 2.69-1.227-1.783 3.917-2.698c.274-.188.53-.263.767-.225zm101.69 5.241c-1.049-.023-2.027.466-2.934 1.468-.912 1.007-1.308 2.034-1.187 3.081.126 1.042.724 2.047 1.793 3.015l1.611 1.46c1.08.978 2.146 1.478 3.194 1.501 1.054.017 2.037-.477 2.95-1.485.907-1.001 1.297-2.023 1.171-3.065-.121-1.047-.736-2.072-1.844-3.075l-1.511-1.369c-1.108-1.003-2.189-1.513-3.243-1.53zm-110.73.41c-1.054.026-2.13.545-3.23 1.557v.001l-1.5 1.38c-1.1 1.013-1.706 2.044-1.82 3.092-.117 1.042.281 2.06 1.197 3.054.92 1 1.908 1.488 2.961 1.462 1.049-.032 2.104-.536 3.165-1.513l1.6-1.472c1.071-.987 1.666-2.003 1.784-3.045.113-1.048-.291-2.072-1.212-3.072-.915-.994-1.897-1.475-2.945-1.444zm111.115 1.293c.068 0 .136.012.205.023.55.09 1.136.417 1.757.98l1.326 1.201c.621.563 1.004 1.113 1.148 1.65.144.539.04 1.091-.31 1.66-.275.395-.855.99-.988 1.091h-.001c-.536.411-1.078.572-1.628.481-.544-.086-1.13-.41-1.756-.978l-1.301-1.18c-.638-.578-1.029-1.136-1.173-1.674-.144-.538-.038-1.093.319-1.667.055-.101.595-.77.987-1.091.464-.355.936-.52 1.415-.496zm-111.282.414c.41.022.814.183 1.214.485.37.309.908.94.998 1.082v.001c.36.57.472 1.126.332 1.665-.134.534-.513 1.087-1.135 1.66l-1.292 1.19c-.633.582-1.224.92-1.773 1.015-.55.095-1.093-.06-1.632-.468-.095-.066-.713-.664-.997-1.083-.356-.565-.464-1.117-.325-1.656.14-.54.519-1.093 1.135-1.66l1.317-1.213c.617-.567 1.2-.899 1.748-.993.137-.024.274-.032.41-.024zm120.57 5.67l-6.248 5.151 1.153 1.399 2.299-1.895 2.377 2.884-1.197 3.232 1.311 1.59 1.154-3.372c.48.416.989.623 1.525.621.537 0 1.087-.236 1.652-.702.665-.547 1.011-1.136 1.04-1.766.033-.624-.217-1.26-.75-1.906zm-129.765.198l-5.492 6.687 6.258 5.14 1.15-1.4-2.25-1.848 3.782-4.604-1.138-.934-3.78 4.603-1.734-1.423 4.342-5.286zm129.782 2.137l3.026 3.671c.211.256.308.504.29.744-.007.24-.165.488-.473.743-.303.25-.577.357-.82.323-.239-.028-.464-.17-.675-.427l-3.017-3.678zM30.065 50.97l-.792 1.294.285 4.569-.03.049-4.198 1.826-.792 1.294 6.908 4.227.946-1.546-4.976-3.044 2.816-1.304 3.507 2.145.946-1.545-3.507-2.146-.127-3.092 4.976 3.045.945-1.546zm150.23 10.308l-8.875.304.87 1.769 1.875-.064 2.035 4.135-1.194 1.446.87 1.769 5.655-6.849zm-.684 1.815l.065.132-2.445 2.958-1.455-2.957zm-154.366.173c-.47.01-.911.115-1.325.315-.95.454-1.722 1.368-2.312 2.742l-.804 1.873c-.59 1.373-.723 2.561-.398 3.564.318 1 1.098 1.766 2.34 2.3 1.249.536 2.349.578 3.3.124.944-.457 1.7-1.349 2.27-2.674l.858-1.997c.576-1.34.704-2.51.386-3.509-.325-1.002-1.112-1.772-2.36-2.308-.7-.3-1.35-.443-1.955-.43zm44.115.503c-7.26-.037-12.815 1.632-16.665 5.005-3.85 3.373-5.775 8.342-5.775 14.905 0 6.6 1.925 11.587 5.775 14.96 3.85 3.337 9.405 5.005 16.665 5.005h20.35v-7.15H69.965c-4.767 0-8.305-1.008-10.615-3.025-2.31-2.053-3.465-5.317-3.465-9.79 0-4.473 1.155-7.718 3.465-9.735 2.31-2.016 5.848-3.025 10.615-3.025H89.16v-7.04zm25.85.275v39.325h8.8V64.043zm30.91 0l-17.71 39.325h9.57l3.74-8.305h22.385l3.74 8.305h9.57l-17.71-39.325zM25.079 65.082c.218-.01.449.015.693.07a7.797 7.797 0 011.353.58c.562.374.89.835.983 1.384.095.542-.023 1.202-.357 1.98l-.694 1.612c-.34.79-.741 1.341-1.203 1.652-.463.311-1.023.39-1.68.24v-.001c-.114-.02-.923-.313-1.353-.58-.556-.37-.88-.83-.973-1.38-.093-.548.026-1.209.357-1.979l.707-1.644c.331-.77.727-1.31 1.19-1.621.289-.195.614-.3.977-.314zm158.546 3.52l-7.545 2.938.657 1.688 7.546-2.938zm-51.07 2.316h.715l7.645 16.995H124.91zm52.625 1.507l-7.777 2.255.504 1.74 2.861-.83 1.041 3.59-2.378 2.495.574 1.98 2.395-2.64c.276.572.66.963 1.154 1.174.494.21 1.092.213 1.795.01.827-.24 1.378-.644 1.654-1.21.278-.561.3-1.243.067-2.048zM18.57 74.093l-1.087 3.93c-.398 1.441-.366 2.635.097 3.582.464.947 1.348 1.596 2.652 1.95 1.312.355 2.407.24 3.285-.343.87-.586 1.5-1.6 1.891-3.043l1.095-4.045-1.42-.385-1.063 3.925c-.257.947-.648 1.596-1.173 1.947-.532.349-1.243.403-2.132.162-.89-.24-1.472-.645-1.749-1.213-.276-.568-.286-1.325-.03-2.272l1.033-3.816zm165.702.482l1.325 4.57c.092.318.083.584-.028.797-.102.218-.345.383-.73.494-.377.11-.67.101-.88-.027-.208-.12-.358-.34-.451-.659l-1.314-4.572zm-161.42 35.45l-7.976 1.264.284 1.79 3.267-.518.42 2.651-2.848 3.158.354 2.226 3.471-3.922 4.504 2.657-.353-2.226-3.672-2.112-.422-2.662 3.255-.517zm158.804.94l-1.063 6.275c-.14.826-.047 1.504.276 2.034.318.52.864.847 1.639.978.774.131 1.4 0 1.88-.382.472-.395.778-1.006.918-1.832l.677-3.998c.055-.327.176-.564.361-.708.18-.154.44-.201.782-.143.343.058.577.19.703.394.12.197.152.459.097.786l-1.098 6.42 1.451.245 1.12-6.61c.14-.827.043-1.502-.29-2.025-.33-.531-.891-.863-1.68-.997-.797-.135-1.435 0-1.915.388-.486.385-.8.99-.94 1.817l-.676 3.997c-.055.32-.168.558-.34.712-.178.154-.428.203-.748.15-.32-.055-.536-.183-.647-.386-.119-.204-.151-.466-.097-.786l1.042-6.084zm-157.17 8.61l-7.806 2.157 2.06 7.456 1.42-.392-1.578-5.71 6.386-1.764zm155.415.987l-.446 1.757 7.85 1.99.445-1.757zm-.49 2.658l-.607 1.708 5.344 2.619-2.369 1.526-3.948-1.402-.607 1.708 3.938 1.398.88 2.704-5.796-1.348-.606 1.707 7.935 1.856.508-1.43-1.369-3.9 3.517-2.152.508-1.43zM26.9 127.77l-7.628 2.718.608 1.707 7.628-2.72zm.843 2.812l-7.346 3.405.761 1.644 5.292-2.453-.475 3.067-3.731 1.729.762 1.644 3.73-1.73 2.643 1.61-5.292 2.453.763 1.643 7.346-3.405-.638-1.377-3.96-2.296-.024-.051.808-4.506zm148.563 4.042a1.837 1.837 0 00-.459.11c-.586.217-1.07.698-1.454 1.443l-3.098 6.036 7.205 3.698.827-1.613-2.65-1.36 1.707-3.325 3.44-.181.942-1.834-3.553.276c.192-.605.18-1.154-.034-1.646s-.647-.905-1.299-1.24c-.574-.295-1.099-.416-1.574-.364zm.252 1.824c.145.024.307.081.485.173.35.179.556.387.621.624.069.23.027.494-.125.79l-2.182 4.226-1.924-.988 2.172-4.232c.151-.296.341-.483.568-.561a.727.727 0 01.385-.032zm-5.533 6.242l-4.972 7.357 6.71 4.534 4.971-7.357-1.22-.824-3.957 5.855-1.567-1.059 3.59-5.31-1.22-.826-3.59 5.312-1.482-1.002 3.957-5.856zm-136.768.721l-8.8 1.2 1.045 1.67 1.858-.253 2.443 3.91-1.042 1.559 1.044 1.671 4.935-7.384zm-.498 1.875l.078.124-2.134 3.19-1.746-2.795zm3.257 2.602l-3.197 2.566 1.148 1.431 2.05-1.644 1.261 1.572-5.166 4.147 1.134 1.413 5.166-4.147 1.546 1.926-2.049 1.644 1.148 1.431 3.015-2.42-.52 6.428-2.01 2.073 1.31 1.27 2.018-2.082 6.606-.752-.836 1.09 4.619 3.542-8.01.451-.834 1.087 6.892 5.287.896-1.168-4.816-3.694 8.019-.444.834-1.088-6.704-5.141-.023.03-1.57-1.522-4.668.585.431-4.692-1.456-1.412zm128.4 2.896l-4.165 4.814c-.548.634-.822 1.261-.82 1.882.001.61.3 1.172.893 1.686.594.513 1.196.73 1.805.648.61-.092 1.188-.455 1.736-1.09l2.653-3.066c.218-.251.443-.39.676-.418.233-.038.48.057.743.283.263.228.396.461.397.702 0 .23-.108.471-.325.723l-4.27 4.917 1.114.963 4.387-5.07c.548-.634.815-1.261.803-1.881-.008-.626-.315-1.2-.92-1.724-.611-.529-1.224-.75-1.838-.662-.616.077-1.198.432-1.746 1.066l-2.653 3.067c-.212.245-.432.39-.659.433-.233.038-.472-.05-.717-.262-.246-.212-.364-.434-.354-.665.004-.236.114-.476.326-.722l4.046-4.66zm-11.505 12.112l-6.742 5.09.887 1.176 4.646-3.508-1.701 7.84.826 1.094 6.932-5.234-.887-1.176-4.844 3.659 1.71-7.848zm-4.103.275a1.058 1.058 0 00-1.058 1.058 1.058 1.058 0 001.058 1.059 1.058 1.058 0 001.059-1.059 1.058 1.058 0 00-1.059-1.058zm-89.606 6.413l-7.294 5.067 1.69 1.014 1.54-1.07 3.953 2.372-.22 1.862 1.69 1.014 1.04-8.82zm83.794.31l-2.412 1.418.962 8.83 1.698-1-.203-1.864 3.974-2.337 1.53 1.083 1.7-.998zM60.61 171.48l.126.076-.45 3.81-2.827-1.695zm82.96.306l3.132 2.219-2.84 1.67-.418-3.814zm-4.06.861l-9.125 4.008 1.649 3.754 1.68-.738-1.057-2.405 1.846-.811 2.664 6.066 1.659-.728-2.664-6.067 2.26-.993 1.057 2.406 1.68-.738zm-72.668 1.254a3.497 3.497 0 00-.79.141c-1.009.305-1.792 1.073-2.35 2.304-.562 1.237-.626 2.337-.19 3.297.437.953 1.337 1.738 2.698 2.356l3.816 1.732.609-1.341-3.703-1.68c-.894-.406-1.471-.896-1.733-1.47-.258-.582-.197-1.292.183-2.131.381-.84.874-1.35 1.478-1.531.605-.182 1.354-.069 2.248.336l3.6 1.633.598-1.32-3.703-1.705c-1.018-.469-1.939-.676-2.761-.621zm62.99 2.976l-1.735.522 1.678 5.574-7.165-3.922-1.757.528 2.334 7.755 1.735-.523-1.68-5.585 7.168 3.933 1.757-.528zm-50.698 1.31l-1.634 4.935c-.18.544-.433.875-.757.99-.315.11-.777.065-1.387-.137l-.677-.224c-.502-.166-.878-.363-1.13-.589-.248-.233-.307-.547-.177-.942a3.965 3.965 0 01.204-.47l-1.72-.569c-.108.18-.192.363-.254.55-.258.78-.203 1.443.166 1.987.378.538 1.097.983 2.158 1.334l1.258.417c.781.259 1.431.362 1.95.311.52-.058.945-.263 1.277-.615.33-.352.6-.843.81-1.474l1.633-4.935zm5.322 1.407l-5.245 7.167 1.928.408 1.108-1.514 4.509.955.4 1.833 1.927.408-1.89-8.677zm32.81.69c-.404 0-.837.027-1.299.1l-2.013.317c-1.477.231-2.554.752-3.23 1.56-.676.803-.91 1.87-.7 3.206.211 1.342.761 2.296 1.652 2.86.89.555 2.048.721 3.472.498l2.148-.338c1.44-.226 2.498-.74 3.175-1.542.675-.809.907-1.884.697-3.227-.21-1.335-.76-2.28-1.649-2.836-.612-.388-1.363-.587-2.253-.599zm-31.807.97l.144.03.815 3.75-3.224-.683zm23.667.248l-1.517.028-3.7 2.697h-.056l-3.797-2.557-1.517.028.15 8.097 1.812-.033-.109-5.831 2.614 1.672.076 4.111 1.812-.034-.076-4.11 2.539-1.769.108 5.832 1.812-.034zm7.81.285c.444 0 .824.073 1.142.215.51.226.875.654 1.096 1.284.136.462.233 1.286.23 1.454h-.002c-.016.676-.232 1.199-.647 1.57-.408.37-1.03.62-1.866.751l-1.734.272c-.85.133-1.53.087-2.04-.139-.509-.225-.874-.658-1.097-1.295-.043-.107-.225-.948-.229-1.454.018-.667.234-1.187.65-1.558.416-.37 1.038-.621 1.866-.751l1.768-.277c.31-.05.598-.073.864-.071z" font-size="11.326" font-family="Zen Dots" fill="#fff"/><path d="M78.169 108.835l7.007 4.041-5.962 3.128-10.361-5.786-3.923 2.774v4.87l5.816 3.27-9.659 5.732v5.591l5.058 2.303 9.432-5.366v6.895l4.29 2.381 4.207-2.386v-11.578l6.173-3.525v8.07l7.18-4.373v6.496l-10.129 5.77v5.321l4.15 2.082 6.135-3.463v11.464l4.283 2.762h.603l4.283-2.762v-11.464l6.135 3.463 4.15-2.082v-5.322l-10.13-5.769v-6.496l7.18 4.373v-8.07l6.174 3.525v11.578l4.207 2.386 4.29-2.38v-6.896l9.431 5.366 5.059-2.303v-5.591l-9.659-5.733 5.816-3.268v-4.871l-3.923-2.774-10.361 5.786-5.962-3.128 7.007-4.04h-2.613l-7.095 4.093 8.683 4.556 10.26-5.729 2.701 1.911v3.434l-7.12 4 10.961 6.506v4.01l-3.687 1.68-10.802-6.146v8.37l-2.98 1.654-2.908-1.65v-11.578l-8.78-5.013v7.998l-7.181-4.375v9.573l10.13 5.77v3.76l-2.812 1.41-7.474-4.22v12.986l-3.28 2.116h-.004l-3.28-2.116V138.85l-7.474 4.22-2.811-1.41v-3.76l10.13-5.77v-9.573l-7.18 4.375v-7.998l-8.781 5.013v11.577l-2.91 1.651-2.979-1.654v-8.37l-10.802 6.147-3.687-1.68v-4.01l10.961-6.507-7.12-4v-3.434l2.702-1.91 10.259 5.728 8.683-4.556-7.095-4.094zm16.423 0l3.435 5.934h8.281l3.436-5.934h-1.506l-2.68 4.631h-6.78l-2.68-4.63z" fill="#06c7ff"/></svg>