<svg width="125mm" height="125mm" viewBox="0 0 125 125" xmlns="http://www.w3.org/2000/svg"><g transform="translate(-71.702 -98.954)"><rect width="125" height="125" x="71.702" y="98.954" ry=".407"/><path style="-inkscape-font-specification:'Zen Dots, Normal'" d="M101.44 118.86c-7.26-.037-12.815 1.631-16.665 5.004-7.85 6.879-7.794 23.036 0 29.866 3.85 3.336 9.406 5.005 16.666 5.005h20.35v-7.15h-19.745c-4.767 0-8.306-1.009-10.616-3.025-2.31-2.054-3.465-5.317-3.465-9.79 0-4.474 1.155-7.719 3.465-9.735 2.31-2.017 5.85-3.025 10.616-3.025h19.194v-7.04zm25.85.274v39.326h8.8v-39.326zm30.91 0l-17.71 39.326h9.57l3.74-8.306h22.386l3.74 8.306h9.57l-17.71-39.326zm6.436 6.876h.715l7.645 16.994H156.99z" font-size="11.326" font-family="Zen Dots" fill="#fff"/><path d="M110.25 163.927l7.006 4.04-5.962 3.128-10.36-5.786-3.923 2.774v4.871l5.815 3.269-9.658 5.732v5.592l5.058 2.303 9.432-5.367v6.895l4.29 2.382 4.207-2.386v-11.578l6.172-3.526v8.07l7.18-4.373v6.497l-10.128 5.769v5.322l4.15 2.082 6.134-3.464v11.465l4.284 2.762h.602l4.283-2.762v-11.465l6.135 3.464 4.15-2.082v-5.322l-10.129-5.77v-6.496l7.18 4.373v-8.07l6.174 3.526v11.578l4.207 2.386 4.29-2.381v-6.896l9.43 5.367 5.06-2.303v-5.592l-9.659-5.732 5.815-3.269v-4.87l-3.923-2.775-10.36 5.786-5.963-3.127 7.007-4.041H140.32l-2.68 4.63h-6.78l-2.68-4.63h-17.93z" fill="#06c7ff"/></g></svg>