<svg width="417.968" height="345.979" viewBox="0 0 110.587 91.54" xmlns="http://www.w3.org/2000/svg"><path style="-inkscape-font-specification:'Zen Dots, Normal'" d="M22.532 0C15.272-.035 9.717 1.633 5.867 5.007c-7.85 6.878-7.795 23.035 0 29.865 3.85 3.337 9.405 5.005 16.665 5.005h20.35v-7.15H23.137c-4.766 0-8.305-1.009-10.615-3.025-2.31-2.054-3.465-5.317-3.465-9.79 0-4.474 1.155-7.719 3.465-9.735 2.31-2.017 5.849-3.025 10.615-3.025h19.195V.11zm25.85.276V39.6h8.8V.276zm30.91 0L61.582 39.6h9.57l3.74-8.306h22.385l3.74 8.306h9.57L92.877.276zm6.435 6.875h.715l7.645 16.994H78.082z" font-size="11.326" font-family="Zen Dots" fill="#fff"/><path d="M31.341 45.068l7.007 4.04-5.962 3.128-10.361-5.786-3.923 2.774v4.871l5.816 3.269-9.659 5.732v5.592l5.059 2.303 9.431-5.367v6.895l4.29 2.382 4.207-2.386V60.937l6.173-3.526v8.07l7.18-4.373v6.496l-10.129 5.77v5.322l4.15 2.082 6.135-3.464v11.465l4.283 2.761h.603l4.283-2.761V77.314l6.135 3.464 4.15-2.082v-5.322l-10.129-5.77v-6.496l7.18 4.373v-8.07l6.173 3.526v11.578l4.208 2.386 4.29-2.382v-6.895l9.43 5.367 5.059-2.303v-5.592l-9.658-5.732 5.815-3.269v-4.87l-3.923-2.775-10.361 5.786-5.962-3.128 7.007-4.04h-2.613L69.63 49.16l8.683 4.556 10.26-5.728 2.701 1.91v3.435l-7.12 4 10.962 6.506v4.01l-3.688 1.68-10.802-6.146v8.369l-2.98 1.655-2.908-1.651V60.18l-8.78-5.014v7.998l-7.18-4.374v9.572l10.128 5.771v3.759l-2.81 1.41-7.475-4.22v12.986l-3.28 2.116h-.004l-3.28-2.116V75.083l-7.474 4.22-2.81-1.411v-3.759L51.9 68.362V58.79l-7.18 4.374v-7.998l-8.78 5.014v11.577l-2.91 1.65-2.979-1.654v-8.37l-10.8 6.147-3.688-1.68v-4.01l10.962-6.506-7.12-4V49.9l2.7-1.911 10.26 5.728 8.683-4.556-7.095-4.093zm16.423 0l3.435 5.934h8.281l3.436-5.934H61.41l-2.68 4.63h-6.78l-2.68-4.63z" fill="#06c7ff"/></svg>